<svg width="18" height="18" viewBox="0 0 18 18" xmlns="http://www.w3.org/2000/svg">
<path d="M0 0h24v24H0V0z" fill="none"/>
<path d="M4.53752 6.0375C2.49002 8.085 2.49002 11.415 4.53752 13.4625C5.56502 14.49 6.90752 15 8.25002 15C9.59252 15 10.935 14.49 11.9625 13.4625C14.5725 10.8525 15 3 15 3C15 3 7.14752 3.4275 4.53752 6.0375ZM10.905 12.405C10.1925 13.11 9.25502 13.5 8.25002 13.5C7.58252 13.5 5.83502 12.3225 5.27252 12C5 13 5.60252 12.1988 5 12.405C4.39748 12.6112 5.7594 12.6448 5.27252 12C4.16252 10.53 4.26002 8.4375 5.60252 7.095C6.90752 5.79 10.53 4.9875 13.35 4.65C13.0125 7.47 12.21 11.0925 10.905 12.405Z"/>


</svg>
