<svg width="2100" height="1185" viewBox="0 0 2100 1185" fill="none" xmlns="http://www.w3.org/2000/svg">
<path fill-rule="evenodd" clip-rule="evenodd" d="M76.3419 276.316C248.111 198.186 118.501 256.432 118.501 256.432C160.661 237.234 244.98 197.466 329.299 184.439C413.618 171.412 497.937 184.439 582.256 217.35C666.575 250.261 750.894 303.056 835.213 309.227C919.532 316.083 1003.85 276.316 1088.17 230.377C1172.49 184.439 1256.81 131.644 1341.13 138.501C1425.45 144.672 1509.77 210.494 1594.08 250.261C1678.4 289.343 1762.72 303.056 1847.04 270.145C1931.36 237.234 2015.68 157.699 2057.84 118.617L2100 80.3148V0H2057.84C2015.68 0 1931.36 0 1847.04 0C1762.72 0 1678.4 0 1594.08 0C1509.77 0 1425.45 0 1341.13 0C1256.81 0 1172.49 0 1088.17 0C1003.85 0 919.532 0 835.213 0C750.894 0 666.575 0 582.256 0C497.937 0 413.618 0 329.299 0C244.98 0 160.661 0 118.501 0H76.3419C76.3419 0 -95.4274 354.446 76.3419 276.316Z" fill="#121A1B"/>
<path fill-rule="evenodd" clip-rule="evenodd" d="M76 1171.08L83 1172C89 1172.92 102 1174.8 115 1172.92C128 1171.08 141 1165.52 154 1164.12C167 1162.72 180 1165.52 194 1169.25C207 1172.92 220 1177.56 233 1176.2C246 1174.8 259 1167.36 272 1166.44C285 1165.52 298 1171.08 311 1173.88C324 1176.64 337 1176.64 350 1177.12C363 1177.56 376 1178.52 389 1178.04C403 1177.56 416 1175.72 429 1176.2C442 1176.64 455 1179.44 468 1179.44C481 1179.44 494 1176.64 507 1173.4C520 1170.16 533 1166.44 546 1166.93C559 1167.36 572 1172 585 1171.57C598 1171.08 612 1165.52 625 1165.96C638 1166.44 651 1172.92 664 1175.24C677 1177.56 690 1175.72 703 1176.2C716 1176.64 729 1179.44 742 1178.52C755 1177.56 768 1172.92 781 1169.68C794 1166.44 807 1164.61 820 1163.64C834 1162.72 847 1162.72 860 1161.8C873 1160.88 886 1159 899 1159C912 1159 925 1160.88 938 1163.64C951 1166.44 964 1170.16 977 1170.16C990 1170.16 1003 1166.44 1016 1165.04C1029 1163.64 1043 1164.61 1056 1167.36C1069 1170.16 1082 1174.8 1095 1175.24C1108 1175.72 1121 1172 1134 1168.76C1147 1165.52 1160 1162.72 1173 1163.2C1186 1163.64 1199 1167.36 1212 1171.08C1225 1174.8 1238 1178.52 1252 1179.44C1265 1180.36 1278 1178.52 1291 1176.2C1304 1173.88 1317 1171.08 1330 1171.57C1343 1172 1356 1175.72 1369 1176.2C1382 1176.64 1395 1173.88 1408 1173.88C1421 1173.88 1434 1176.64 1447 1178.96C1460 1181.28 1474 1183.16 1487 1182.2C1500 1181.28 1513 1177.56 1526 1176.64C1539 1175.72 1552 1177.56 1565 1176.2C1578 1174.8 1591 1170.16 1604 1170.16C1617 1170.16 1630 1174.8 1643 1174.32C1656 1173.88 1669 1168.28 1683 1168.76C1696 1169.25 1709 1175.72 1722 1178.96C1735 1182.2 1748 1182.2 1761 1178.96C1774 1175.72 1787 1169.25 1800 1167.84C1813 1166.44 1826 1170.16 1839 1170.16C1852 1170.16 1865 1166.44 1878 1166.93C1892 1167.36 1905 1172 1918 1175.24C1931 1178.52 1944 1180.36 1957 1178.96C1970 1177.56 1983 1172.92 1989 1170.6L1996 1168.28V1185H1989C1983 1185 1970 1185 1957 1185C1944 1185 1931 1185 1918 1185C1905 1185 1892 1185 1878 1185C1865 1185 1852 1185 1839 1185C1826 1185 1813 1185 1800 1185C1787 1185 1774 1185 1761 1185C1748 1185 1735 1185 1722 1185C1709 1185 1696 1185 1683 1185C1669 1185 1656 1185 1643 1185C1630 1185 1617 1185 1604 1185C1591 1185 1578 1185 1565 1185C1552 1185 1539 1185 1526 1185C1513 1185 1500 1185 1487 1185C1474 1185 1460 1185 1447 1185C1434 1185 1421 1185 1408 1185C1395 1185 1382 1185 1369 1185C1356 1185 1343 1185 1330 1185C1317 1185 1304 1185 1291 1185C1278 1185 1265 1185 1252 1185C1238 1185 1225 1185 1212 1185C1199 1185 1186 1185 1173 1185C1160 1185 1147 1185 1134 1185C1121 1185 1108 1185 1095 1185C1082 1185 1069 1185 1056 1185C1043 1185 1029 1185 1016 1185C1003 1185 990 1185 977 1185C964 1185 951 1185 938 1185C925 1185 912 1185 899 1185C886 1185 873 1185 860 1185C847 1185 834 1185 820 1185C807 1185 794 1185 781 1185C768 1185 755 1185 742 1185C729 1185 716 1185 703 1185C690 1185 677 1185 664 1185C651 1185 638 1185 625 1185C612 1185 598 1185 585 1185C572 1185 559 1185 546 1185C533 1185 520 1185 507 1185C494 1185 481 1185 468 1185C455 1185 442 1185 429 1185C416 1185 403 1185 389 1185C376 1185 363 1185 350 1185C337 1185 324 1185 311 1185C298 1185 285 1185 272 1185C259 1185 246 1185 233 1185C220 1185 207 1185 194 1185C180 1185 167 1185 154 1185C141 1185 128 1185 115 1185C102 1185 89 1185 83 1185H76V1171.08Z" fill="#121A1B"/>
</svg>
