<svg width="77" height="77" viewBox="0 0 77 77" fill="none" xmlns="http://www.w3.org/2000/svg">
<g id="button_dash">
<g id="Rectangle 18" filter="url(#filter0_ddii)">
<rect x="4" y="4" width="64" height="64" rx="21" fill="url(#paint0_linear)"/>
<rect x="4.5" y="4.5" width="63" height="63" rx="20.5" stroke="url(#paint1_linear)"/>
</g>
<g id="btnInside">
<g id="Rectangle 17" filter="url(#filter1_ii)">
<rect x="7" y="7" width="58" height="58" rx="19" fill="url(#paint2_linear)"/>
</g>
</g>
<path id="Vector" d="M39 27C37.8954 27 37 27.8954 37 29V31C37 32.1046 37.8954 33 39 33H43C44.1046 33 45 32.1046 45 31V29C45 27.8954 44.1046 27 43 27H39ZM37 43C37 44.1046 37.8954 45 39 45H43C44.1046 45 45 44.1046 45 43V37C45 35.8954 44.1046 35 43 35H39C37.8954 35 37 35.8954 37 37V43ZM27 43C27 44.1046 27.8954 45 29 45H33C34.1046 45 35 44.1046 35 43V41C35 39.8954 34.1046 39 33 39H29C27.8954 39 27 39.8954 27 41V43ZM27 35C27 36.1046 27.8954 37 29 37H33C34.1046 37 35 36.1046 35 35V29C35 27.8954 34.1046 27 33 27H29C27.8954 27 27 27.8954 27 29V35Z" fill="url(#paint3_linear)"/>
</g>
<defs>
<filter id="filter0_ddii" x="0" y="0" width="77" height="77" filterUnits="userSpaceOnUse" color-interpolation-filters="sRGB">
<feFlood flood-opacity="0" result="BackgroundImageFix"/>
<feColorMatrix in="SourceAlpha" type="matrix" values="0 0 0 0 0 0 0 0 0 0 0 0 0 0 0 0 0 0 127 0"/>
<feOffset dx="3" dy="3"/>
<feGaussianBlur stdDeviation="3"/>
<feColorMatrix type="matrix" values="0 0 0 0 0.235294 0 0 0 0 0.258824 0 0 0 0 0.376471 0 0 0 0.48 0"/>
<feBlend mode="normal" in2="BackgroundImageFix" result="effect1_dropShadow"/>
<feColorMatrix in="SourceAlpha" type="matrix" values="0 0 0 0 0 0 0 0 0 0 0 0 0 0 0 0 0 0 127 0"/>
<feOffset dx="-2" dy="-2"/>
<feGaussianBlur stdDeviation="1"/>
<feColorMatrix type="matrix" values="0 0 0 0 0.321569 0 0 0 0 0.34902 0 0 0 0 0.494118 0 0 0 0.26 0"/>
<feBlend mode="normal" in2="effect1_dropShadow" result="effect2_dropShadow"/>
<feBlend mode="normal" in="SourceGraphic" in2="effect2_dropShadow" result="shape"/>
<feColorMatrix in="SourceAlpha" type="matrix" values="0 0 0 0 0 0 0 0 0 0 0 0 0 0 0 0 0 0 127 0" result="hardAlpha"/>
<feOffset dx="1" dy="1"/>
<feGaussianBlur stdDeviation="0.5"/>
<feComposite in2="hardAlpha" operator="arithmetic" k2="-1" k3="1"/>
<feColorMatrix type="matrix" values="0 0 0 0 0.418542 0 0 0 0 0.464195 0 0 0 0 0.683333 0 0 0 0.1 0"/>
<feBlend mode="screen" in2="shape" result="effect3_innerShadow"/>
<feColorMatrix in="SourceAlpha" type="matrix" values="0 0 0 0 0 0 0 0 0 0 0 0 0 0 0 0 0 0 127 0" result="hardAlpha"/>
<feOffset dx="-1" dy="-1"/>
<feComposite in2="hardAlpha" operator="arithmetic" k2="-1" k3="1"/>
<feColorMatrix type="matrix" values="0 0 0 0 0.147813 0 0 0 0 0.191927 0 0 0 0 0.4125 0 0 0 0.14 0"/>
<feBlend mode="multiply" in2="effect3_innerShadow" result="effect4_innerShadow"/>
</filter>
<filter id="filter1_ii" x="5" y="5" width="62" height="62" filterUnits="userSpaceOnUse" color-interpolation-filters="sRGB">
<feFlood flood-opacity="0" result="BackgroundImageFix"/>
<feBlend mode="normal" in="SourceGraphic" in2="BackgroundImageFix" result="shape"/>
<feColorMatrix in="SourceAlpha" type="matrix" values="0 0 0 0 0 0 0 0 0 0 0 0 0 0 0 0 0 0 127 0" result="hardAlpha"/>
<feOffset dx="-2" dy="-2"/>
<feGaussianBlur stdDeviation="2"/>
<feComposite in2="hardAlpha" operator="arithmetic" k2="-1" k3="1"/>
<feColorMatrix type="matrix" values="0 0 0 0 0.324479 0 0 0 0 0.360489 0 0 0 0 0.533333 0 0 0 0.16 0"/>
<feBlend mode="screen" in2="shape" result="effect1_innerShadow"/>
<feColorMatrix in="SourceAlpha" type="matrix" values="0 0 0 0 0 0 0 0 0 0 0 0 0 0 0 0 0 0 127 0" result="hardAlpha"/>
<feOffset dx="2" dy="2"/>
<feGaussianBlur stdDeviation="2"/>
<feComposite in2="hardAlpha" operator="arithmetic" k2="-1" k3="1"/>
<feColorMatrix type="matrix" values="0 0 0 0 0.147813 0 0 0 0 0.191927 0 0 0 0 0.4125 0 0 0 0.18 0"/>
<feBlend mode="multiply" in2="effect1_innerShadow" result="effect2_innerShadow"/>
</filter>
<linearGradient id="paint0_linear" x1="4" y1="4" x2="68" y2="68" gradientUnits="userSpaceOnUse">
<stop stop-color="#4A5178"/>
<stop offset="1" stop-color="#424869"/>
</linearGradient>
<linearGradient id="paint1_linear" x1="68" y1="68" x2="4" y2="4" gradientUnits="userSpaceOnUse">
<stop offset="0.328125" stop-color="#414869" stop-opacity="0"/>
<stop offset="0.890625" stop-color="#5E658C"/>
</linearGradient>
<linearGradient id="paint2_linear" x1="7" y1="7" x2="65" y2="65" gradientUnits="userSpaceOnUse">
<stop offset="0.244141" stop-color="#424869"/>
<stop offset="0.816406" stop-color="#4A5178"/>
</linearGradient>
<linearGradient id="paint3_linear" x1="27" y1="27" x2="36" y2="45" gradientUnits="userSpaceOnUse">
<stop stop-color="#9299C2"/>
<stop offset="1" stop-color="#D2D6EF"/>
</linearGradient>
</defs>
</svg>
