<?xml version="1.0" encoding="iso-8859-1"?>
<!-- Generator: Adobe Illustrator 18.0.0, SVG Export Plug-In . SVG Version: 6.00 Build 0)  -->
<!DOCTYPE svg PUBLIC "-//W3C//DTD SVG 1.1//EN" "http://www.w3.org/Graphics/SVG/1.1/DTD/svg11.dtd">
<svg version="1.1" id="Capa_1" xmlns="http://www.w3.org/2000/svg" xmlns:xlink="http://www.w3.org/1999/xlink" x="0px" y="0px"
	 viewBox="0 0 468.748 468.748" style="enable-background:new 0 0 468.748 468.748;" xml:space="preserve">
<g id="XMLID_43_">
	<path id="XMLID_44_" d="M7.842,404.915c0,35.265,28.594,63.833,63.842,63.833c35.248,0,63.841-28.568,63.841-63.833
		c0-28.954-37.148-64.209-55.285-98.161c-3.576-6.693-13.18-6.816-16.711-0.1C45.75,340.47,7.842,375.974,7.842,404.915z"/>
	<path id="XMLID_45_" d="M333.753,25.518c-47.061,26.732-90.725,60.379-116.198,108.627c8.773-30.806,42.772-82.685,100.269-121.403
		C269.617,4.933,192.33,2.902,150.036,57.574c-47.455,61.343-66.251,141.331-72.854,179.151c-1.386,7.938,7.136,13.917,14.085,9.836
		c20.079-11.792,56.945-28.191,106.65-28.149c48.176,0.032,137.101,1.879,159.589-168.941c40.186-19.25,64.604-30.238,97.794-34.608
		c7.329-0.965,7.534-11.453,0.248-12.693C409.837-5.609,372.601,8.775,333.753,25.518z"/>
</g>
<g>
</g>
<g>
</g>
<g>
</g>
<g>
</g>
<g>
</g>
<g>
</g>
<g>
</g>
<g>
</g>
<g>
</g>
<g>
</g>
<g>
</g>
<g>
</g>
<g>
</g>
<g>
</g>
<g>
</g>
</svg>
