<?xml version="1.0" encoding="utf-8"?>
<!-- Generator: Adobe Illustrator 24.1.2, SVG Export Plug-In . SVG Version: 6.00 Build 0)  -->
<svg version="1.1" id="Layer_1" xmlns="http://www.w3.org/2000/svg" xmlns:xlink="http://www.w3.org/1999/xlink" x="0px" y="0px"
	 viewBox="0 0 1920 1080" style="enable-background:new 0 0 1920 1080;" xml:space="preserve">
<style type="text/css">
	.st0{fill:#393667;stroke:#FFFFFF;stroke-miterlimit:10;}
	.st1{stroke:#FFFFFF;stroke-miterlimit:10;}
</style>
<g>
	<path class="st0" d="M0.66,0.54C3.82,0.42,7.51,30.76,8.5,38.41c23.69,182.73,191.9,426.16,351.27,533.75
		C617,745.82,781.3,516.33,1229.14,645.09c341.02,98.05,396.36,271.84,824.63,377.51c159.55,39.37,296.87,51.02,388.13,54.7
		c-9.94,13.25-25.41,30.82-48.37,47.19c0,0-30.64,21.85-70.13,34.32c-126.25,39.87-2312.22,152.84-2322.75,0
		c-0.02-0.24,0-0.12,0-82.58c0-28.24,0-56.48,0-84.72c0-22.88,0-45.76,0-68.64c0-8.73,0-142.64,0-142.64
		C0.65,574.92-13.05,1.03,0.66,0.54z"/>
	<path class="st1" d="M719.94,1237c-100.06,0-191.24-1.23-271.68-3.71c-238.12-7.33-383.01-25.2-430.65-53.12
		c-11.12-6.52-17.03-13.7-17.55-21.34c-0.01-0.15-0.01-0.15-0.01-13.85l0.01-364.77c0-63.14-1.31-161.97-2.7-266.6
		C-4.26,392.23-5.92,266.7-6.04,168.16C-6.1,114.67-5.7,75.18-4.82,47.44C-3.31,0.14-0.74,0.05,0.64,0
		c2.11-0.09,4.34,6.16,8.27,36.82l0.2,1.53c22.83,176.07,183.58,420.34,351.04,533.39c130.92,88.39,236.57,72.35,370.33,52.05
		c62.63-9.5,133.61-20.28,214.91-20.55c1.06,0,2.13-0.01,3.19-0.01c92.13,0,184,13.53,280.76,41.35
		c156.14,44.89,251.26,104.92,351.96,168.47c118.21,74.6,240.45,151.74,472.64,209.03c125.5,30.96,256.04,49.36,388,54.68l1.07,0.04
		l-0.59,0.79c-13.64,18.18-29.95,34.09-48.49,47.31c-0.31,0.22-31.18,22.05-70.31,34.41c-59.05,18.65-572.06,54.03-1120.58,70.01
		C1027.45,1234.43,864.45,1237,719.94,1237z M0.68,1.09C-1.95,2.72-5.02,33.6-4.82,170.37c0.14,98.24,1.79,222.79,3.39,343.23
		c1.39,104.64,2.7,203.47,2.7,266.61l-0.01,364.77c0,13.15,0,13.67,0.01,13.78c0.5,7.29,6.23,14.19,17.01,20.51
		c47.45,27.81,192.13,45.62,430.03,52.94c196.6,6.05,457.56,4.68,754.68-3.98c548.42-15.97,1061.25-51.33,1120.22-69.95
		c38.93-12.3,69.65-34.01,69.95-34.23c18.17-12.96,34.2-28.52,47.65-46.28c-131.69-5.38-261.95-23.77-387.2-54.67
		c-232.39-57.34-354.72-134.53-473.02-209.19c-100.63-63.5-195.67-123.48-351.64-168.32c-219.41-63.08-367.57-40.6-498.28-20.76
		c-64.97,9.86-126.35,19.18-186.14,14.68c-66.01-4.96-124.84-26.23-185.12-66.93c-77.61-52.4-160.23-139.46-226.67-238.86
		C63.49,230.13,19.16,125.27,7.9,38.47l-0.2-1.53C4.07,8.55,1.89,1.73,0.68,1.09z"/>
</g>
</svg>
