<svg width="32" height="21" viewBox="0 0 32 21" xmlns="http://www.w3.org/2000/svg">
<path id="Robot" d="M22.9859 15.6655C22.2892 15.6655 21.7224 14.9816 21.7224 14.1416C21.7224 13.3016 22.2892 12.6182 22.9859 12.6182C23.6826 12.6182 24.2493 13.3016 24.2493 14.1416C24.2493 14.9816 23.6826 15.6655 22.9859 15.6655ZM9.02034 15.6655C8.3236 15.6655 7.7569 14.9816 7.7569 14.1416C7.7569 13.3016 8.3236 12.6182 9.02034 12.6182C9.71705 12.6182 10.2838 13.3016 10.2838 14.1416C10.2838 14.9816 9.71705 15.6655 9.02034 15.6655ZM23.439 6.48869L25.9643 1.21551C26.109 0.912417 26.0229 0.525275 25.7719 0.350243C25.521 0.175707 25.1995 0.279538 25.0543 0.582134L22.4975 5.92206C20.5422 4.84616 18.3463 4.24691 16.0031 4.24691C13.6599 4.24691 11.464 4.84616 9.50873 5.92206L6.95191 0.582134C6.80674 0.279538 6.48524 0.175707 6.23428 0.350243C5.98331 0.525275 5.89679 0.912417 6.04195 1.21551L8.56718 6.48869C4.23105 9.3322 1.26538 14.6252 0.831528 20.8783H31.1747C30.7404 14.6252 27.7748 9.3322 23.439 6.48869Z"/>
</svg>
