<?xml version="1.0" encoding="utf-8"?>
<!-- Generator: Adobe Illustrator 24.1.2, SVG Export Plug-In . SVG Version: 6.00 Build 0)  -->
<svg version="1.1" id="Layer_1" xmlns="http://www.w3.org/2000/svg" xmlns:xlink="http://www.w3.org/1999/xlink" x="0px" y="0px"
	 viewBox="0 0 1920 1080" style="enable-background:new 0 0 1920 1080;" xml:space="preserve">
<style type="text/css">
	.st0{fill:#393667;stroke:#FFFFFF;stroke-miterlimit:10;}
	.st1{stroke:#FFFFFF;stroke-miterlimit:10;}
</style>
<g>
	<path class="st0" d="M-0.5,0.5c2.61-0.11,5.67,28.18,6.49,35.31C25.58,206.2,164.69,433.17,296.5,533.5
		c212.74,161.93,348.62-52.06,719,68c282.03,91.42,327.81,253.47,682,352c131.96,36.71,245.52,47.57,321,51
		c-8.22,12.35-21.01,28.74-40,44c0,0-25.34,20.37-58,32c-104.42,37.18-1912.29,142.51-1921,0c-0.01-0.22,0-0.11,0-77
		c0-26.33,0-52.67,0-79c0-21.33,0-42.67,0-64c0-8.14,0-133,0-133C-0.51,536.08-11.84,0.96-0.5,0.5z"/>
	<path class="st1" d="M594.37,1153.42c-82.75,0-158.16-1.15-224.69-3.46c-196.93-6.83-316.77-23.5-356.17-49.53
		c-9.2-6.08-14.08-12.77-14.52-19.9c-0.01-0.14-0.01-0.14-0.01-12.91L-1,727.5c0-58.87-1.09-151.02-2.23-248.59
		c-1.33-113.19-2.71-230.23-2.8-322.12C-6.09,106.92-5.76,70.1-5.03,44.24C-3.78,0.13-1.66,0.05-0.52,0
		c1.75-0.08,3.59,5.74,6.84,34.33l0.16,1.42C25.36,199.93,158.31,427.69,296.8,533.1c108.27,82.41,195.65,67.46,306.28,48.53
		c51.8-8.86,110.5-18.91,177.74-19.16c0.88,0,1.76,0,2.64,0c76.2,0,152.17,12.62,232.2,38.56
		c129.13,41.86,207.8,97.83,291.09,157.09c97.77,69.56,198.86,141.49,390.89,194.91c103.79,28.87,211.75,46.02,320.89,50.98
		l0.88,0.04l-0.49,0.74c-11.28,16.95-24.77,31.79-40.1,44.11c-0.25,0.2-25.78,20.56-58.15,32.08
		c-48.83,17.39-473.12,50.38-926.76,65.28C848.69,1151.02,713.89,1153.42,594.37,1153.42z M-0.48,1.02
		C-2.66,2.53-5.2,31.33-5.04,158.86c0.12,91.6,1.48,207.73,2.8,320.04C-1.09,576.47,0,668.63,0,727.5l-0.01,340.12
		c0,12.26,0,12.74,0,12.85c0.42,6.8,5.15,13.23,14.07,19.13c39.24,25.93,158.9,42.54,355.65,49.36
		c162.59,5.64,378.42,4.36,624.15-3.71c453.56-14.89,877.7-47.86,926.46-65.22c32.2-11.46,57.6-31.72,57.85-31.92
		c15.03-12.08,28.28-26.59,39.41-43.15c-108.91-5.01-216.64-22.16-320.23-50.98c-192.2-53.46-293.37-125.44-391.21-195.05
		c-83.22-59.21-161.83-115.14-290.82-156.95c-181.46-58.82-303.99-37.85-412.1-19.36c-53.74,9.2-104.49,17.88-153.95,13.69
		c-54.59-4.63-103.25-24.46-153.1-62.41c-64.19-48.86-132.52-130.04-187.46-222.72C51.46,214.58,14.8,116.81,5.49,35.87l-0.16-1.43
		C2.32,7.97,0.51,1.61-0.48,1.02z"/>
</g>
</svg>
